<svg width="20" height="40" viewBox="0 0 64 85" fill="none" xmlns="http://www.w3.org/2000/svg">
<path fill-rule="evenodd" clip-rule="evenodd" d="M58.5746 21.0858C51.5889 25.5441 47.1542 33.2843 46.4899 42.1852C46.3855 43.5719 44.7784 43.969 44.1498 42.7635C40.1198 35.0227 33.1254 30.1068 25.0873 29.3613C23.8351 29.2445 23.4751 27.4644 24.563 26.7692C31.5491 22.3129 35.9839 14.5727 36.6478 5.6698C36.7522 4.28317 38.3592 3.88603 38.9879 5.09151C43.0183 12.8343 50.0126 17.7502 58.0504 18.4937C59.3025 18.6105 59.6626 20.3907 58.5746 21.0858Z" fill="white"/>
<path fill-rule="evenodd" clip-rule="evenodd" d="M20.2534 70.5031C16.5856 72.8438 14.2572 76.9078 13.9084 81.5812C13.8536 82.3093 13.0098 82.5178 12.6797 81.8848C10.5638 77.8205 6.89143 75.2395 2.67104 74.8481C2.0136 74.7867 1.82457 73.8521 2.39579 73.4871C6.06381 71.1474 8.39225 67.0834 8.74082 62.409C8.79564 61.6809 9.63941 61.4724 9.96948 62.1053C12.0856 66.1707 15.758 68.7517 19.9782 69.1421C20.6356 69.2034 20.8246 70.1381 20.2534 70.5031Z" fill="white"/>
</svg>
