<svg width="49" height="48" viewBox="0 0 49 48" fill="none" xmlns="http://www.w3.org/2000/svg">
<path d="M42.4421 20C42.4421 34 24.4421 46 24.4421 46C24.4421 46 6.44208 34 6.44208 20C6.44208 15.2261 8.3385 10.6477 11.7142 7.27208C15.0898 3.89642 19.6682 2 24.4421 2C29.216 2 33.7943 3.89642 37.17 7.27208C40.5457 10.6477 42.4421 15.2261 42.4421 20Z" stroke="white" stroke-width="2" stroke-linecap="round" stroke-linejoin="round"/>
<path d="M24.4421 26C27.7558 26 30.4421 23.3137 30.4421 20C30.4421 16.6863 27.7558 14 24.4421 14C21.1284 14 18.4421 16.6863 18.4421 20C18.4421 23.3137 21.1284 26 24.4421 26Z" stroke="white" stroke-width="2" stroke-linecap="round" stroke-linejoin="round"/>
</svg>
